<?xml version="1.0" encoding="utf-8"?>
<svg version="1.1" id="Layer_1" xmlns="http://www.w3.org/2000/svg" xmlns:xlink="http://www.w3.org/1999/xlink" x="0px" y="0px"
	 viewBox="0 0 300 120" enable-background="new 0 0 300 120" xml:space="preserve">
<g>
	<path fill="#FFFFFF" d="M28.1,73.5v-2h22.7v2H28.1z"/>
	<path fill="#FFFFFF" d="M90,61.4c1.1,0.7,1.6,1.9,1.6,3.5c0,1.6-0.5,3.2-1.5,4.8c-1,1.6-2.6,2.9-4.7,3.9c-2.1,1-4.7,1.6-7.7,1.6
		c-1.7,0-3.4-0.2-4.9-0.5c-1.5-0.3-2.8-0.9-3.7-1.6c-0.9-0.7-1.4-1.5-1.4-2.5c0-1.1,0.6-2.2,1.8-3.3c1.2-1.1,2.7-2,4.5-2.8h-0.2
		c-1.3,0-2.4-0.3-3.5-0.8c-1-0.5-1.5-1.5-1.5-3c0-1.1,0.5-2.2,1.4-3.2c0.9-1,2.6-2.1,4.8-3.1c-1.5-0.6-2.6-1.4-3.4-2.6
		c-0.8-1.2-1.2-2.7-1.2-4.5c0-2.6,0.8-4.6,2.5-5.9c1.7-1.3,3.9-2,6.7-2c1.3,0,2.5,0.1,3.5,0.4c0.3-1.9,0.9-3.3,1.8-4.4
		c0.9-1.1,2-1.7,3.4-1.7c0.8,0,1.5,0.2,1.9,0.7c0.5,0.5,0.7,1.1,0.7,1.9c0,0.7-0.2,1.3-0.7,1.7c-0.5,0.5-1,0.7-1.7,0.7
		c-0.8,0-1.5-0.3-1.8-0.8c-0.4-0.5-0.7-1.3-0.8-2.4c-0.5,0.4-0.9,1.3-1.3,2.4c-0.2,0.7-0.4,1.4-0.5,2.1c1.5,0.6,2.7,1.4,3.5,2.6
		c0.8,1.2,1.3,2.7,1.3,4.6c0,1.8-0.4,3.3-1.2,4.4c-0.8,1.2-1.9,2.1-3.3,2.6c-1.4,0.6-3,0.9-4.8,0.9c-1.4,0-2.6-0.2-3.7-0.5
		c-1.4,0.7-2.4,1.4-3.1,2c-0.7,0.6-1.1,1.3-1.1,2c0,0.6,0.2,1,0.6,1.2c0.4,0.3,1,0.4,1.8,0.4h11.7C87.5,60.3,88.9,60.6,90,61.4z
		 M72.5,66.7c-0.6,0.9-0.9,1.9-0.9,2.8c0,1.1,0.4,2,1.1,2.7c0.7,0.7,1.6,1.2,2.8,1.6s2.3,0.5,3.5,0.5c1.5,0,2.9-0.3,4.3-0.8
		s2.6-1.3,3.5-2.4c0.9-1.1,1.4-2.4,1.4-3.9c0-0.7-0.1-1.2-0.3-1.6c-0.2-0.4-0.6-0.7-1.2-0.9c-0.6-0.2-1.3-0.3-2.3-0.3H75
		C74,65,73.1,65.8,72.5,66.7z M76.1,41.8c-0.8,1.1-1.2,2.9-1.2,5.4s0.4,4.3,1.2,5.4c0.8,1.1,1.9,1.6,3.4,1.6c1.5,0,2.6-0.5,3.4-1.6
		c0.8-1.1,1.2-2.9,1.2-5.4c0-2.6-0.4-4.4-1.2-5.4c-0.8-1.1-1.9-1.6-3.4-1.6C78,40.2,76.9,40.7,76.1,41.8z"/>
	<path fill="#FFFFFF" d="M107.3,41.4c-0.8-0.7-1.9-1.1-3.4-1.1c-2.4,0-4,0.6-5,1.8c0.7,0.2,1.2,0.5,1.7,1.1c0.4,0.5,0.7,1.2,0.7,2
		c0,0.8-0.3,1.5-0.8,2c-0.5,0.5-1.2,0.7-2.1,0.7c-0.8,0-1.5-0.3-2-0.9c-0.5-0.6-0.7-1.3-0.7-2.2c0-1.3,0.8-2.5,2.3-3.6
		c0.8-0.5,1.8-1,3-1.3c1.2-0.4,2.5-0.5,4-0.5c1.4,0,2.6,0.2,3.6,0.5c1,0.3,1.9,0.8,2.4,1.4c0.8,0.8,1.3,1.7,1.6,2.7
		c0.3,1,0.4,2.5,0.4,4.3v13.9c0,0.8,0.1,1.4,0.4,1.8c0.2,0.4,0.6,0.6,1.2,0.6c0.4,0,0.8-0.1,1.1-0.3s0.7-0.4,1.1-0.8l0.6,0.9
		c-0.6,0.4-1.1,0.8-1.5,1s-0.8,0.4-1.3,0.6c-0.5,0.1-1.1,0.2-1.8,0.2c-1.6,0-2.7-0.4-3.4-1.2c-0.6-0.8-0.9-1.9-0.9-3.2
		c-1,1.6-2.1,2.8-3.5,3.4c-1.4,0.7-2.8,1-4.2,1c-1.2,0-2.2-0.2-3.2-0.6c-1-0.4-1.7-1-2.3-1.9c-0.6-0.8-0.9-1.9-0.9-3.1
		c0-1.3,0.3-2.4,0.9-3.2c0.6-0.9,1.5-1.7,2.6-2.4c1.1-0.7,2.6-1.4,4.5-2.2c0.3-0.1,1.1-0.5,2.4-1c1.3-0.5,2.2-1,2.7-1.6
		c0.6-0.5,0.8-1.1,0.8-1.7v-3.1C108.5,43.4,108.1,42.1,107.3,41.4z M107.3,51.5c-0.6,0.3-1.8,0.9-3.6,1.8c-1,0.5-1.8,0.9-2.4,1.4
		c-0.7,0.5-1.2,1.1-1.7,1.9c-0.5,0.8-0.7,1.8-0.7,3c0,1.4,0.4,2.5,1.1,3.3c0.7,0.7,1.7,1.1,2.9,1.1c2.2,0,4.1-1.3,5.6-3.8v-9.8
		C108.3,50.9,107.8,51.2,107.3,51.5z"/>
	<path fill="#FFFFFF" d="M142.4,63.7c0.6,0.7,1.6,1,3,1v1c-1-0.1-2.1-0.1-3.1-0.1c-2.1,0-3.9,0.2-5.2,0.7v-5.9
		c-0.8,2.1-1.9,3.6-3.4,4.5c-1.5,1-3.1,1.5-4.8,1.5c-2.2,0-4-0.6-5.2-1.9c-0.6-0.7-1-1.5-1.3-2.5c-0.3-1-0.4-2.4-0.4-4V45.5
		c0-1.5-0.3-2.7-0.8-3.4c-0.6-0.7-1.5-1-3-1v-1c1,0.1,2.1,0.1,3.1,0.1c2.1,0,3.8-0.2,5.2-0.7v19.7c0,1.3,0.1,2.3,0.2,3.1
		s0.5,1.4,1,1.9c0.6,0.5,1.4,0.7,2.5,0.7c1.3,0,2.4-0.4,3.5-1.2s1.8-1.9,2.4-3.3c0.6-1.4,0.9-2.9,0.9-4.6V45.5
		c0-1.5-0.3-2.7-0.8-3.4c-0.6-0.7-1.6-1-3-1v-1c1,0.1,2.1,0.1,3.1,0.1c2.1,0,3.8-0.2,5.2-0.7v20.9C141.6,61.9,141.8,63,142.4,63.7z
		 M130.1,32.3c0.5-0.9,1.1-2.1,1.8-3.4c0.7-1.4,1.3-2.4,1.8-3c0.6-0.7,1.2-1.1,1.9-1.1c0.4,0,0.8,0.1,1.1,0.4
		c0.5,0.4,0.7,0.8,0.7,1.4c0,0.5-0.2,1.1-0.7,1.7c-0.5,0.6-1.2,1.3-2.2,2.2c-1,0.8-1.9,1.7-2.8,2.5c-0.9,0.8-1.9,1.8-3,3l-0.5-0.4
		C129,34.2,129.6,33.2,130.1,32.3z"/>
	<path fill="#FFFFFF" d="M167.3,62.9c-0.8,1-1.8,1.9-3.1,2.6c-1.3,0.7-2.7,1-4.4,1c-2.1,0-4-0.5-5.6-1.6c-1.7-1.1-3-2.6-4-4.6
		c-1-2-1.5-4.3-1.5-7c0-2.7,0.5-5.1,1.5-7.2c1-2.1,2.4-3.7,4.1-4.9c1.8-1.2,3.8-1.8,6-1.8s4.2,0.5,5.8,1.6c1.6,1.1,2.3,2.3,2.3,3.9
		c0,0.9-0.2,1.6-0.7,2.1c-0.5,0.5-1.1,0.7-1.9,0.7c-0.8,0-1.4-0.2-2-0.7c-0.5-0.4-0.8-1.1-0.8-1.8c0-0.7,0.2-1.3,0.6-1.8
		c0.4-0.5,0.9-0.8,1.5-1c-0.3-0.6-0.9-1.1-1.8-1.5c-0.9-0.4-1.8-0.6-2.7-0.6c-1.2,0-2.4,0.4-3.4,1.2s-2,2.1-2.7,3.9
		c-0.7,1.8-1,4.2-1,7.2c0,4.2,0.7,7.2,2,9c1.3,1.9,3.1,2.8,5.2,2.8c1.4,0,2.8-0.4,4.1-1.2c1.3-0.8,2.4-2.1,3.2-3.9l1,0.3
		C168.6,60.7,168.1,61.8,167.3,62.9z"/>
	<path fill="#FFFFFF" d="M183.5,40.7c1.5-0.9,3.2-1.4,5-1.4c2.3,0,4.1,0.6,5.3,1.9c0.6,0.7,1.1,1.5,1.4,2.5c0.3,1,0.4,2.3,0.4,4
		v13.4c0,0.9,0.1,1.7,0.4,2.2c0.3,0.5,0.7,0.9,1.2,1.1c0.5,0.2,1.3,0.3,2.2,0.3v1c-3.1-0.1-5.1-0.2-6-0.2c-0.9,0-2.8,0.1-5.6,0.2v-1
		c0.8,0,1.5-0.1,2-0.3c0.5-0.2,0.8-0.6,1-1.1c0.2-0.5,0.3-1.2,0.3-2.2V46.7c0-1.2-0.1-2.2-0.3-3c-0.2-0.8-0.6-1.5-1.2-2
		c-0.6-0.5-1.5-0.8-2.6-0.8c-1.4,0-2.6,0.4-3.6,1.2c-1.1,0.8-1.9,1.8-2.5,3.2c-0.6,1.4-0.9,2.9-0.9,4.7v11.2c0,0.9,0.1,1.7,0.3,2.2
		c0.2,0.5,0.6,0.9,1,1.1c0.5,0.2,1.1,0.3,1.9,0.3v1c-2.8-0.1-4.7-0.2-5.6-0.2c-0.9,0-2.9,0.1-6,0.2v-1c0.9,0,1.7-0.1,2.2-0.3
		c0.5-0.2,0.9-0.6,1.2-1.1c0.3-0.5,0.4-1.2,0.4-2.2V32.6c0-1.5-0.3-2.7-0.8-3.4c-0.6-0.7-1.6-1-3-1v-1c1.1,0.1,2.1,0.1,3.1,0.1
		c2.1,0,3.9-0.2,5.2-0.7v18.7C180.9,43.2,182,41.7,183.5,40.7z"/>
	<path fill="#FFFFFF" d="M219.7,40.8c1.7,1,3,2.5,4,4.5c1,2,1.5,4.6,1.5,7.7c0,3.1-0.5,5.6-1.5,7.7c-1,2-2.3,3.5-4,4.5
		c-1.7,1-3.7,1.4-5.8,1.4S209.7,66,208,65c-1.7-1-3-2.4-4-4.5c-1-2-1.5-4.6-1.5-7.7c0-3.1,0.5-5.7,1.5-7.7c1-2,2.3-3.5,4-4.5
		c1.7-1,3.7-1.4,5.8-1.4S218,39.8,219.7,40.8z M209.1,43.4c-1.2,2.1-1.7,5.2-1.7,9.5c0,4.3,0.6,7.4,1.7,9.5c1.2,2,2.7,3.1,4.7,3.1
		s3.6-1,4.7-3.1c1.2-2,1.7-5.2,1.7-9.5c0-4.3-0.6-7.5-1.7-9.5c-1.2-2.1-2.7-3.1-4.7-3.1S210.3,41.3,209.1,43.4z"/>
	<path fill="#FFFFFF" d="M243.4,73.5v-2h22.7v2H243.4z"/>
</g>
<g>
	<path fill="#FFFFFF" d="M107.8,84.6c0.8-0.5,1.4-0.9,1.9-1.1c0.4-0.2,0.7-0.4,0.9-0.4c0.1,0,0.3,0.1,0.3,0.2s0.1,0.4,0.1,0.7
		c0,0.3,0,0.7-0.1,1.2c-0.1,0.5-0.2,1-0.3,1.5l0.1,0.1c0.8-1.5,1.5-2.5,2-3.1c0.5-0.6,1-0.9,1.3-0.9c0.3,0,0.5,0.1,0.7,0.3
		c0.2,0.2,0.3,0.5,0.3,0.8c0,0.4-0.1,1-0.4,1.6s-0.7,1.4-1.2,2.2l-0.3-0.1c0.1-0.3,0.2-0.6,0.2-0.7s0.1-0.2,0.1-0.3
		c0-0.3-0.1-0.5-0.2-0.6c-0.1-0.1-0.3-0.2-0.5-0.2c-0.3,0-0.7,0.3-1.2,0.8s-0.9,1.2-1.3,2.1c-0.5,1-0.9,2.1-1.2,3.1
		c-0.3,1-0.5,1.7-0.5,2c0,0.2,0,0.3,0.1,0.4c0.1,0.1,0.2,0.1,0.3,0.1c0.1,0,0.2,0,0.3-0.1s0.4-0.2,0.7-0.5l0,0.5
		c-0.8,0.7-1.5,1.3-2.2,1.7c-0.7,0.4-1.2,0.6-1.6,0.6c-0.2,0-0.4-0.1-0.5-0.2s-0.2-0.4-0.2-0.6c0-0.2,0.1-0.6,0.3-1.2
		s0.7-1.9,1.5-3.9c0.5-1.2,0.8-2.1,1-2.9s0.3-1.3,0.3-1.8c0-0.3-0.1-0.5-0.2-0.6c-0.1-0.2-0.3-0.3-0.5-0.3L107.8,84.6z"/>
	<path fill="#FFFFFF" d="M117.5,84.3c0.7-0.3,1.3-0.6,1.9-1s1-0.5,1-0.5c0,0,0.1,0,0.1,0c0,0,0,0,0,0.1c0,0-0.3,0.8-1,2.3
		c-0.7,1.5-1.3,3-1.9,4.6c-0.5,1.4-0.8,2.3-1,2.8c-0.1,0.5-0.2,0.8-0.2,1.1c0,0.1,0,0.2,0.1,0.3c0.1,0.1,0.1,0.1,0.2,0.2
		c0.2,0,0.4-0.2,0.7-0.5c0.3-0.3,0.6-0.8,0.9-1.4l-0.4,1.9c-1,0.8-1.9,1.4-2.4,1.7c-0.6,0.3-1,0.5-1.2,0.5c-0.2,0-0.4-0.1-0.5-0.3
		c-0.1-0.2-0.2-0.5-0.2-0.8c0-0.5,0.5-2,1.5-4.5C116.1,88.4,116.9,86.2,117.5,84.3z M118.2,80.2c0.3-0.3,0.6-0.6,1-0.9
		c0.3-0.3,0.6-0.7,0.9-1c0.5,0.1,0.9,0.3,1.3,0.3c0.4,0.1,0.8,0.1,1.2,0.1c-0.2,0.6-0.6,1-1.1,1.4c-0.5,0.4-1.1,0.5-1.7,0.5
		c-0.3,0-0.5,0-0.8-0.1C118.7,80.5,118.4,80.4,118.2,80.2z"/>
	<path fill="#FFFFFF" d="M127.6,87.6l-0.3-0.1c0.1-0.2,0.2-0.4,0.3-0.6s0.1-0.3,0.1-0.5c0-0.5-0.2-0.8-0.6-1.1
		c-0.4-0.3-0.9-0.5-1.4-0.5c-0.5,0-1,0.1-1.4,0.4c-0.4,0.3-0.6,0.6-0.6,1c0,0.3,0.1,0.6,0.4,0.9c0.2,0.3,0.8,0.7,1.7,1.3
		c0.1,0,0.1,0.1,0.2,0.2c1,0.7,1.5,1.4,1.5,2c0,0.3-0.1,0.8-0.4,1.2c-0.3,0.5-0.7,1-1.2,1.7c-0.8,1-1.6,1.7-2.1,2
		c-0.6,0.4-1.2,0.6-1.8,0.6c-0.6,0-1.1-0.2-1.5-0.5c-0.4-0.3-0.7-0.7-0.9-1.3c0.3-0.5,0.7-1.1,1.1-1.7c0.4-0.6,1-1.2,1.5-1.8
		l0.3,0.2c-0.2,0.3-0.4,0.5-0.5,0.7c-0.1,0.2-0.2,0.4-0.2,0.6c0,0.4,0.2,0.8,0.5,1c0.3,0.3,0.8,0.4,1.3,0.4c0.6,0,1.1-0.1,1.5-0.4
		c0.4-0.3,0.6-0.6,0.6-1c0-0.5-0.6-1.1-1.7-1.9l-0.1-0.1c-0.7-0.5-1.2-0.9-1.5-1.3c-0.3-0.4-0.4-0.8-0.4-1.3c0-0.3,0.1-0.7,0.3-1
		c0.2-0.4,0.5-0.8,0.9-1.2c0.7-0.8,1.4-1.5,2.2-2c0.8-0.5,1.5-0.7,2.1-0.7c0.6,0,1.1,0.2,1.5,0.5s0.7,0.6,0.7,1c0,0.1-0.2,0.4-0.5,1
		C128.8,85.9,128.3,86.6,127.6,87.6z"/>
	<path fill="#FFFFFF" d="M134.5,80.4c0.4-0.2,0.9-0.4,1.3-0.6c0.5-0.2,0.9-0.5,1.4-0.8c-0.2,0.6-0.4,1.3-0.7,2
		c-0.3,0.7-0.6,1.6-1,2.5h2.8l-1.6,1.1l-1.6,0c-0.4,1.3-1,3-1.7,4.8s-1.1,3-1.1,3.5c0,0.3,0,0.5,0.1,0.6c0.1,0.1,0.2,0.2,0.4,0.3
		c0.3-0.3,0.6-0.6,0.9-1s0.5-0.7,0.7-1.1l0.4,0.6c-0.9,1.3-1.7,2.3-2.4,3c-0.8,0.7-1.4,1.1-1.9,1.1c-0.3,0-0.6-0.2-0.8-0.5
		c-0.2-0.3-0.3-0.7-0.3-1.3c0-0.7,0.5-2.2,1.4-4.6c0.2-0.5,0.3-0.9,0.4-1.1c0.1-0.3,0.3-0.7,0.4-1.2c0.6-1.5,0.9-2.4,0.9-2.5
		c0-0.2-0.1-0.3-0.2-0.5c-0.2-0.2-0.4-0.4-0.8-0.6l1-0.7l1,0.1c0.1-0.5,0.3-1.2,0.5-1.9C134.3,80.9,134.5,80.5,134.5,80.4z"/>
	<path fill="#FFFFFF" d="M143.3,82.6l0.5,0.1c-1.4,1.3-2.6,2.8-3.4,4.4c-0.8,1.7-1.3,3.2-1.3,4.6c0,0.7,0.2,1.3,0.5,1.7
		s0.7,0.6,1.3,0.6c0.2,0,0.4,0,0.5-0.1c0.2-0.1,0.3-0.1,0.5-0.2c0.7-1.2,1.3-2.5,1.8-3.9s0.7-2.6,0.7-3.6c0-0.4-0.1-0.8-0.2-1
		c-0.1-0.2-0.3-0.3-0.6-0.3c-0.1,0-0.2,0-0.3,0.1S143.1,85,143,85l-0.2-0.2l3-2.5c0.3,0,0.6,0.2,0.7,0.6c0.2,0.4,0.3,0.9,0.3,1.6
		c0,1.3-0.3,2.6-0.9,4s-1.4,2.8-2.5,4c-1,1.1-1.9,2-2.9,2.7c-0.9,0.7-1.6,1-2.1,1c-0.6,0-1.1-0.2-1.4-0.7c-0.4-0.5-0.5-1.2-0.5-2
		c0-1.7,0.6-3.6,1.8-5.6C139.5,86.1,141.2,84.2,143.3,82.6z"/>
	<path fill="#FFFFFF" d="M148.7,84.6c0.8-0.5,1.4-0.9,1.9-1.1c0.4-0.2,0.7-0.4,0.9-0.4c0.1,0,0.3,0.1,0.3,0.2s0.1,0.4,0.1,0.7
		c0,0.3,0,0.7-0.1,1.2s-0.2,1-0.3,1.5l0.1,0.1c0.8-1.5,1.5-2.5,2-3.1c0.5-0.6,1-0.9,1.3-0.9c0.3,0,0.5,0.1,0.7,0.3
		c0.2,0.2,0.3,0.5,0.3,0.8c0,0.4-0.1,1-0.4,1.6c-0.3,0.6-0.7,1.4-1.2,2.2l-0.3-0.1c0.1-0.3,0.2-0.6,0.2-0.7c0-0.1,0.1-0.2,0.1-0.3
		c0-0.3-0.1-0.5-0.2-0.6c-0.1-0.1-0.3-0.2-0.5-0.2c-0.3,0-0.7,0.3-1.2,0.8s-0.9,1.2-1.3,2.1c-0.5,1-0.9,2.1-1.2,3.1
		c-0.3,1-0.5,1.7-0.5,2c0,0.2,0,0.3,0.1,0.4c0.1,0.1,0.2,0.1,0.3,0.1c0.1,0,0.2,0,0.3-0.1s0.4-0.2,0.7-0.5l0,0.5
		c-0.8,0.7-1.5,1.3-2.2,1.7c-0.7,0.4-1.2,0.6-1.6,0.6c-0.2,0-0.4-0.1-0.5-0.2s-0.2-0.4-0.2-0.6c0-0.2,0.1-0.6,0.3-1.2
		s0.7-1.9,1.5-3.9c0.5-1.2,0.8-2.1,1-2.9s0.3-1.3,0.3-1.8c0-0.3-0.1-0.5-0.2-0.6c-0.1-0.2-0.3-0.3-0.5-0.3L148.7,84.6z"/>
	<path fill="#FFFFFF" d="M163.7,93l0.1,0.6c-0.7,0.8-1.4,1.4-2.1,1.9c-0.7,0.5-1.2,0.7-1.6,0.7c-0.2,0-0.4-0.1-0.5-0.2
		c-0.1-0.2-0.2-0.4-0.2-0.7c0-0.5,0.1-1.1,0.3-1.8c0.2-0.7,0.5-1.5,0.9-2.4l-0.1,0c-1.1,1.6-2.2,2.8-3.2,3.7c-1,0.9-1.8,1.4-2.3,1.4
		c-0.3,0-0.5-0.1-0.6-0.3s-0.2-0.6-0.2-1.1c0-0.8,0.2-1.7,0.5-2.7c0.3-1,0.8-2,1.3-3.1c0.5-1,1.1-1.8,1.6-2.5
		c0.6-0.7,1.1-1.3,1.7-1.8c0.6-0.5,1.3-0.9,2.1-1.3c0.8-0.4,1.3-0.5,1.6-0.5c0.2,0,0.5,0.1,0.7,0.3c0.3,0.2,0.5,0.5,0.6,0.8
		c0.2-0.1,0.5-0.2,0.8-0.4c0.3-0.2,0.4-0.3,0.5-0.3c0,0,0.1,0,0.1,0c0,0,0,0.1,0,0.1c0,0.1-0.2,0.5-0.6,1.3c-0.4,0.8-0.7,1.6-1,2.3
		c-0.7,1.6-1.1,2.9-1.5,3.9c-0.3,1.1-0.5,1.8-0.5,2.4c0,0.2,0,0.3,0.1,0.4c0.1,0.1,0.2,0.2,0.3,0.2c0.1,0,0.3-0.1,0.5-0.2
		C163.2,93.5,163.4,93.3,163.7,93z M162.3,85.6c-0.1-0.4-0.3-0.7-0.6-1c-0.3-0.2-0.5-0.4-0.8-0.4c-0.2,0-0.4,0.1-0.6,0.4
		c-0.3,0.2-0.5,0.6-0.8,1c-0.7,1-1.3,2.3-1.8,3.7c-0.5,1.4-0.7,2.5-0.7,3.3c0,0.3,0,0.6,0.1,0.7c0.1,0.2,0.2,0.3,0.3,0.3
		c0.3,0,0.8-0.4,1.4-1.1c0.7-0.7,1.3-1.6,1.9-2.7c0.2-0.3,0.5-0.9,0.9-2c0.4-1,0.8-1.9,1.2-2.6l-0.1-0.1L162.3,85.6z"/>
	<path fill="#FFFFFF" d="M167.1,95.5c-0.5,0.1-0.9,0.1-1.3,0.2c-0.4,0.1-0.8,0.2-1.2,0.4c0.4-1.1,0.9-2.6,1.7-4.4
		c1.6-4.2,2.4-6.9,2.4-8.2c0.5-0.1,1-0.3,1.6-0.5c0.6-0.2,1-0.3,1.1-0.3c0.1,0,0.1,0,0.2,0.1c0,0.1,0.1,0.1,0.1,0.3
		c0,0.4-0.4,1.7-1.3,3.7s-1.5,3.8-2.1,5.2l0.2,0.1c0.7-1.3,1.6-2.6,2.6-3.9c1-1.3,2.2-2.7,3.6-4.2c1.2-0.6,1.9-0.9,2.3-1.1
		c0.4-0.1,0.6-0.2,0.7-0.2c0.1,0,0.2,0,0.2,0.1c0,0.1,0.1,0.2,0.1,0.3c0,0.3-0.5,1.5-1.5,3.7l-0.2,0.5c-0.7,1.3-1.2,2.5-1.5,3.6
		c-0.4,1-0.6,1.8-0.6,2.2c0,0.3,0.1,0.5,0.2,0.6s0.2,0.2,0.4,0.2c0.1,0,0.2,0,0.3-0.1c0.1,0,0.2-0.1,0.3-0.1V94
		c-0.3,0.2-0.7,0.4-1.3,0.7c-1.5,0.9-2.3,1.3-2.5,1.3c-0.2,0-0.4-0.1-0.5-0.3s-0.2-0.4-0.2-0.7c0-0.3,0.1-0.9,0.4-1.6
		c0.3-0.7,0.7-1.8,1.4-3.2c0.2-0.3,0.4-0.8,0.7-1.4c0.6-1.3,0.9-2.1,0.9-2.3c0-0.1,0-0.2-0.1-0.3c-0.1-0.1-0.1-0.1-0.2-0.1
		c-0.6,0-1.5,0.9-2.9,2.7S168.4,92.9,167.1,95.5z"/>
	<path fill="#FFFFFF" d="M182.9,80.4c0.4-0.2,0.9-0.4,1.3-0.6c0.5-0.2,0.9-0.5,1.4-0.8c-0.2,0.6-0.4,1.3-0.7,2
		c-0.3,0.7-0.6,1.6-1,2.5h2.8l-1.6,1.1l-1.6,0c-0.4,1.3-1,3-1.7,4.8c-0.7,1.9-1.1,3-1.1,3.5c0,0.3,0,0.5,0.1,0.6
		c0.1,0.1,0.2,0.2,0.4,0.3c0.3-0.3,0.6-0.6,0.9-1c0.3-0.4,0.5-0.7,0.7-1.1l0.4,0.6c-0.9,1.3-1.7,2.3-2.4,3c-0.8,0.7-1.4,1.1-1.9,1.1
		c-0.3,0-0.6-0.2-0.8-0.5c-0.2-0.3-0.3-0.7-0.3-1.3c0-0.7,0.5-2.2,1.4-4.6c0.2-0.5,0.3-0.9,0.4-1.1c0.1-0.3,0.3-0.7,0.4-1.2
		c0.6-1.5,0.9-2.4,0.9-2.5c0-0.2-0.1-0.3-0.2-0.5c-0.2-0.2-0.4-0.4-0.8-0.6l1-0.7l1,0.1c0.1-0.5,0.3-1.2,0.5-1.9
		C182.7,80.9,182.8,80.5,182.9,80.4z"/>
	<path fill="#FFFFFF" d="M190.8,91.5l1.1-0.1c-0.5,1.3-1.2,2.4-2.3,3.4c-1.1,1-2,1.5-2.7,1.5c-0.5,0-1-0.2-1.3-0.7s-0.5-1.1-0.5-1.9
		c0-1.2,0.3-2.5,0.8-3.8c0.6-1.4,1.3-2.6,2.2-3.6c0.9-1,1.8-1.9,2.8-2.5c1-0.6,1.9-0.9,2.7-0.9c0.3,0,0.5,0.1,0.7,0.3
		c0.2,0.2,0.3,0.4,0.3,0.7c0,0.4-0.2,0.9-0.6,1.4c-0.4,0.6-0.9,1.1-1.5,1.5c-0.8,0.6-1.6,1.1-2.3,1.5c-0.8,0.4-1.4,0.5-2.1,0.6
		c-0.2,0.5-0.4,1-0.5,1.5s-0.1,1-0.1,1.6c0,0.8,0.1,1.3,0.4,1.7c0.3,0.4,0.7,0.6,1.2,0.6c0.1,0,0.2,0,0.2,0c0.1,0,0.1,0,0.1,0
		c0.3-0.3,0.6-0.7,0.8-1.1C190.4,92.7,190.6,92.2,190.8,91.5z M188.6,87.5c0.1,0.1,0.3,0.1,0.5,0.1c0.2,0,0.4,0.1,0.6,0.1
		c0.1,0,0.1,0,0.2,0c0.1,0,0.2,0,0.4-0.1c0.4-0.3,0.7-0.7,1-1.1c0.2-0.4,0.4-0.8,0.4-1.1c0-0.2-0.1-0.5-0.2-0.6
		c-0.1-0.2-0.3-0.3-0.5-0.3c-0.1,0-0.2,0-0.3,0.1c0,0,0,0-0.1,0c-0.5,0.4-0.8,0.8-1.2,1.3C189,86.4,188.8,87,188.6,87.5z"/>
</g>
</svg>