<?xml version="1.0" encoding="utf-8"?>
<svg version="1.1" id="Layer_1" xmlns="http://www.w3.org/2000/svg" xmlns:xlink="http://www.w3.org/1999/xlink" x="0px" y="0px"
	 viewBox="0 0 170 65" enable-background="new 0 0 170 65" xml:space="preserve">
<g>
	<path fill="#FFFFFF" d="M19.1,45v-1.1h12.2V45H19.1z"/>
	<path fill="#FFFFFF" d="M52.6,38.4c0.6,0.4,0.9,1,0.9,1.9c0,0.9-0.3,1.7-0.8,2.6s-1.4,1.6-2.5,2.1s-2.5,0.8-4.2,0.8
		c-0.9,0-1.8-0.1-2.7-0.3c-0.8-0.2-1.5-0.5-2-0.8c-0.5-0.4-0.8-0.8-0.8-1.4c0-0.6,0.3-1.2,1-1.8c0.6-0.6,1.5-1.1,2.4-1.5h-0.1
		c-0.7,0-1.3-0.1-1.9-0.4c-0.6-0.3-0.8-0.8-0.8-1.6c0-0.6,0.3-1.2,0.8-1.8s1.4-1.1,2.6-1.7c-0.8-0.3-1.4-0.8-1.8-1.4
		s-0.7-1.5-0.7-2.4c0-1.4,0.5-2.5,1.4-3.2c0.9-0.7,2.1-1.1,3.6-1.1c0.7,0,1.3,0.1,1.9,0.2c0.2-1,0.5-1.8,0.9-2.4
		c0.5-0.6,1.1-0.9,1.8-0.9c0.4,0,0.8,0.1,1,0.4s0.4,0.6,0.4,1c0,0.4-0.1,0.7-0.4,0.9s-0.6,0.4-0.9,0.4c-0.5,0-0.8-0.1-1-0.4
		c-0.2-0.3-0.4-0.7-0.4-1.3c-0.3,0.2-0.5,0.7-0.7,1.3c-0.1,0.4-0.2,0.8-0.3,1.1c0.8,0.3,1.5,0.8,1.9,1.4c0.5,0.6,0.7,1.5,0.7,2.5
		c0,1-0.2,1.8-0.6,2.4c-0.4,0.6-1,1.1-1.8,1.4S47.9,35,46.9,35c-0.7,0-1.4-0.1-2-0.2c-0.7,0.4-1.3,0.7-1.7,1.1
		c-0.4,0.3-0.6,0.7-0.6,1.1c0,0.3,0.1,0.5,0.3,0.7s0.5,0.2,1,0.2h6.3C51.2,37.8,52,38,52.6,38.4z M43.2,41.3c-0.3,0.5-0.5,1-0.5,1.5
		c0,0.6,0.2,1.1,0.6,1.5s0.9,0.7,1.5,0.9s1.2,0.3,1.9,0.3c0.8,0,1.6-0.1,2.3-0.4c0.8-0.3,1.4-0.7,1.9-1.3c0.5-0.6,0.7-1.3,0.7-2.1
		c0-0.4-0.1-0.6-0.2-0.9c-0.1-0.2-0.3-0.4-0.6-0.5c-0.3-0.1-0.7-0.2-1.3-0.2h-5C43.9,40.4,43.5,40.8,43.2,41.3z M45.1,27.8
		c-0.4,0.6-0.6,1.5-0.6,2.9s0.2,2.3,0.6,2.9c0.4,0.6,1,0.9,1.8,0.9c0.8,0,1.4-0.3,1.8-0.9c0.4-0.6,0.6-1.5,0.6-2.9s-0.2-2.4-0.6-2.9
		c-0.4-0.6-1-0.9-1.8-0.9C46.1,27,45.5,27.3,45.1,27.8z"/>
	<path fill="#FFFFFF" d="M61.9,27.6c-0.4-0.4-1.1-0.6-1.9-0.6c-1.3,0-2.2,0.3-2.7,1c0.4,0.1,0.7,0.3,0.9,0.6
		c0.2,0.3,0.4,0.7,0.4,1.1c0,0.5-0.1,0.8-0.4,1.1c-0.3,0.3-0.7,0.4-1.2,0.4c-0.5,0-0.8-0.2-1.1-0.5c-0.3-0.3-0.4-0.7-0.4-1.2
		c0-0.7,0.4-1.3,1.3-1.9c0.4-0.3,1-0.5,1.6-0.7c0.6-0.2,1.4-0.3,2.2-0.3c0.7,0,1.4,0.1,2,0.3c0.6,0.2,1,0.4,1.3,0.7
		c0.4,0.4,0.7,0.9,0.8,1.5c0.2,0.6,0.2,1.3,0.2,2.3v7.5c0,0.4,0.1,0.8,0.2,1c0.1,0.2,0.3,0.3,0.6,0.3c0.2,0,0.4,0,0.6-0.1
		s0.4-0.2,0.6-0.4l0.3,0.5c-0.3,0.2-0.6,0.4-0.8,0.6s-0.5,0.2-0.7,0.3S65.3,41,64.9,41c-0.9,0-1.5-0.2-1.8-0.7
		c-0.3-0.4-0.5-1-0.5-1.7c-0.5,0.9-1.2,1.5-1.9,1.9S59.2,41,58.4,41c-0.6,0-1.2-0.1-1.7-0.3c-0.5-0.2-0.9-0.5-1.2-1
		c-0.3-0.5-0.5-1-0.5-1.7c0-0.7,0.2-1.3,0.5-1.8c0.3-0.5,0.8-0.9,1.4-1.3c0.6-0.4,1.4-0.8,2.4-1.2c0.2-0.1,0.6-0.2,1.3-0.5
		c0.7-0.3,1.2-0.6,1.5-0.8c0.3-0.3,0.5-0.6,0.5-0.9v-1.7C62.6,28.7,62.4,28,61.9,27.6z M61.9,33.1c-0.3,0.2-0.9,0.5-1.9,1
		c-0.5,0.2-1,0.5-1.3,0.8c-0.4,0.3-0.7,0.6-0.9,1s-0.4,1-0.4,1.6c0,0.8,0.2,1.4,0.6,1.8c0.4,0.4,0.9,0.6,1.6,0.6c1.2,0,2.2-0.7,3-2
		v-5.3C62.5,32.7,62.2,32.9,61.9,33.1z"/>
	<path fill="#FFFFFF" d="M80.9,39.7c0.3,0.4,0.8,0.6,1.6,0.6v0.6c-0.6-0.1-1.1-0.1-1.7-0.1c-1.2,0-2.1,0.1-2.8,0.4v-3.2
		c-0.4,1.1-1.1,1.9-1.8,2.5c-0.8,0.5-1.7,0.8-2.6,0.8c-1.2,0-2.1-0.3-2.8-1c-0.3-0.4-0.6-0.8-0.7-1.4c-0.1-0.6-0.2-1.3-0.2-2.2v-6.8
		c0-0.8-0.1-1.4-0.4-1.8c-0.3-0.4-0.8-0.6-1.6-0.6v-0.6c0.6,0.1,1.1,0.1,1.7,0.1c1.1,0,2.1-0.1,2.8-0.4v10.6c0,0.7,0,1.2,0.1,1.7
		c0.1,0.4,0.3,0.8,0.6,1c0.3,0.3,0.8,0.4,1.4,0.4c0.7,0,1.3-0.2,1.9-0.6c0.6-0.4,1-1,1.3-1.8s0.5-1.6,0.5-2.5v-5.6
		c0-0.8-0.2-1.4-0.5-1.8c-0.3-0.4-0.8-0.6-1.6-0.6v-0.6c0.6,0.1,1.1,0.1,1.7,0.1c1.1,0,2.1-0.1,2.8-0.4v11.3
		C80.4,38.7,80.6,39.3,80.9,39.7z M74.3,22.7c0.3-0.5,0.6-1.1,1-1.9s0.7-1.3,1-1.6c0.3-0.4,0.7-0.6,1-0.6c0.2,0,0.4,0.1,0.6,0.2
		c0.2,0.2,0.4,0.5,0.4,0.8c0,0.3-0.1,0.6-0.4,0.9c-0.3,0.3-0.7,0.7-1.2,1.2c-0.5,0.5-1,0.9-1.5,1.3s-1,1-1.6,1.6l-0.3-0.2
		C73.7,23.8,74,23.2,74.3,22.7z"/>
	<path fill="#FFFFFF" d="M94.3,39.2c-0.4,0.6-1,1-1.7,1.4c-0.7,0.4-1.5,0.5-2.4,0.5c-1.1,0-2.1-0.3-3-0.9s-1.6-1.4-2.1-2.5
		c-0.5-1.1-0.8-2.3-0.8-3.8c0-1.5,0.3-2.8,0.8-3.9c0.5-1.1,1.3-2,2.2-2.7s2-0.9,3.3-0.9s2.3,0.3,3.1,0.9c0.8,0.6,1.3,1.3,1.3,2.1
		c0,0.5-0.1,0.8-0.4,1.1c-0.3,0.3-0.6,0.4-1,0.4c-0.4,0-0.8-0.1-1.1-0.4c-0.3-0.2-0.4-0.6-0.4-1c0-0.4,0.1-0.7,0.3-1
		c0.2-0.3,0.5-0.4,0.8-0.5c-0.2-0.3-0.5-0.6-1-0.8c-0.5-0.2-1-0.3-1.5-0.3c-0.7,0-1.3,0.2-1.9,0.6s-1.1,1.1-1.4,2.1S87,32,87,33.6
		c0,2.2,0.4,3.9,1.1,4.9c0.7,1,1.7,1.5,2.8,1.5c0.8,0,1.5-0.2,2.2-0.7c0.7-0.4,1.3-1.2,1.7-2.1l0.5,0.2C95.1,38,94.8,38.6,94.3,39.2
		z"/>
	<path fill="#FFFFFF" d="M103.1,27.3c0.8-0.5,1.7-0.8,2.7-0.8c1.3,0,2.2,0.3,2.9,1c0.3,0.4,0.6,0.8,0.7,1.4c0.1,0.5,0.2,1.3,0.2,2.2
		v7.2c0,0.5,0.1,0.9,0.2,1.2c0.1,0.3,0.4,0.5,0.6,0.6c0.3,0.1,0.7,0.2,1.2,0.2v0.6c-1.7-0.1-2.8-0.1-3.2-0.1c-0.5,0-1.5,0-3,0.1
		v-0.6c0.4,0,0.8-0.1,1.1-0.2c0.3-0.1,0.4-0.3,0.6-0.6c0.1-0.3,0.2-0.7,0.2-1.2v-7.8c0-0.7-0.1-1.2-0.2-1.6s-0.3-0.8-0.6-1.1
		c-0.3-0.3-0.8-0.4-1.4-0.4c-0.7,0-1.4,0.2-2,0.6c-0.6,0.4-1,1-1.3,1.7c-0.3,0.7-0.5,1.6-0.5,2.5v6c0,0.5,0.1,0.9,0.2,1.2
		c0.1,0.3,0.3,0.5,0.6,0.6c0.3,0.1,0.6,0.2,1,0.2v0.6c-1.5-0.1-2.5-0.1-3-0.1c-0.5,0-1.6,0-3.2,0.1v-0.6c0.5,0,0.9-0.1,1.2-0.2
		c0.3-0.1,0.5-0.3,0.6-0.6c0.1-0.3,0.2-0.7,0.2-1.2V22.9c0-0.8-0.2-1.4-0.5-1.8c-0.3-0.4-0.8-0.6-1.6-0.6v-0.6
		c0.6,0.1,1.1,0.1,1.7,0.1c1.2,0,2.1-0.1,2.8-0.4v10.1C101.7,28.6,102.3,27.8,103.1,27.3z"/>
	<path fill="#FFFFFF" d="M122.6,27.3c0.9,0.5,1.6,1.3,2.2,2.4c0.5,1.1,0.8,2.5,0.8,4.1s-0.3,3-0.8,4.1c-0.5,1.1-1.3,1.9-2.2,2.4
		c-0.9,0.5-2,0.8-3.2,0.8s-2.2-0.3-3.2-0.8c-0.9-0.5-1.6-1.3-2.2-2.4c-0.5-1.1-0.8-2.5-0.8-4.1s0.3-3.1,0.8-4.1
		c0.5-1.1,1.3-1.9,2.2-2.4c0.9-0.5,2-0.8,3.2-0.8S121.7,26.8,122.6,27.3z M116.9,28.7c-0.6,1.1-0.9,2.8-0.9,5.1c0,2.3,0.3,4,0.9,5.1
		c0.6,1.1,1.5,1.7,2.6,1.7s1.9-0.6,2.6-1.7c0.6-1.1,0.9-2.8,0.9-5.1c0-2.3-0.3-4-0.9-5.1c-0.6-1.1-1.5-1.7-2.6-1.7
		S117.5,27.6,116.9,28.7z"/>
	<path fill="#FFFFFF" d="M135.5,45v-1.1h12.2V45H135.5z"/>
</g>
</svg>