<?xml version="1.0" encoding="utf-8"?>
<svg version="1.1" id="Layer_1" xmlns="http://www.w3.org/2000/svg" xmlns:xlink="http://www.w3.org/1999/xlink" x="0px" y="0px"
	 viewBox="0 0 300 120" enable-background="new 0 0 300 120" xml:space="preserve">
<g>
	<g opacity="0.35">
		<path fill="#FFFFFF" d="M36.7,76.2v-1.9h21.8v1.9H36.7z"/>
		<path fill="#FFFFFF" d="M96.2,64.5c1,0.7,1.6,1.8,1.6,3.4c0,1.5-0.5,3.1-1.5,4.6s-2.5,2.8-4.5,3.8c-2,1-4.5,1.5-7.4,1.5
			c-1.7,0-3.2-0.2-4.7-0.5s-2.7-0.8-3.6-1.5s-1.4-1.5-1.4-2.4c0-1.1,0.6-2.2,1.7-3.2s2.6-1.9,4.3-2.7h-0.2c-1.2,0-2.3-0.3-3.3-0.8
			s-1.5-1.5-1.5-2.9c0-1.1,0.5-2.1,1.4-3.1s2.5-2,4.6-3c-1.4-0.5-2.5-1.4-3.3-2.5s-1.2-2.6-1.2-4.3c0-2.5,0.8-4.4,2.4-5.7
			s3.8-1.9,6.4-1.9c1.2,0,2.4,0.1,3.4,0.4c0.3-1.8,0.9-3.2,1.7-4.3c0.9-1.1,2-1.6,3.3-1.6c0.8,0,1.4,0.2,1.9,0.7s0.7,1.1,0.7,1.8
			c0,0.7-0.2,1.2-0.7,1.6s-1,0.7-1.6,0.7c-0.8,0-1.4-0.2-1.8-0.7s-0.6-1.3-0.8-2.3c-0.5,0.4-0.9,1.2-1.3,2.3c-0.2,0.7-0.4,1.4-0.5,2
			c1.5,0.5,2.6,1.4,3.4,2.5s1.2,2.6,1.2,4.4c0,1.7-0.4,3.1-1.1,4.3s-1.8,2-3.1,2.5s-2.9,0.8-4.6,0.8c-1.3,0-2.5-0.1-3.5-0.4
			c-1.3,0.7-2.3,1.3-3,1.9s-1,1.2-1,1.9c0,0.5,0.2,0.9,0.5,1.2s0.9,0.4,1.8,0.4h11.3C93.8,63.5,95.1,63.8,96.2,64.5z M79.4,69.6
			c-0.6,0.9-0.9,1.8-0.9,2.7c0,1,0.3,1.9,1,2.6s1.6,1.2,2.6,1.5c1.1,0.3,2.2,0.5,3.3,0.5c1.4,0,2.8-0.3,4.2-0.8s2.5-1.3,3.4-2.3
			s1.3-2.3,1.3-3.7c0-0.6-0.1-1.1-0.3-1.5S93.5,68,93,67.8s-1.3-0.3-2.2-0.3h-8.9C80.8,68,80,68.8,79.4,69.6z M82.9,45.8
			c-0.7,1-1.1,2.8-1.1,5.2s0.4,4.2,1.1,5.2s1.8,1.5,3.2,1.5c1.4,0,2.5-0.5,3.3-1.5s1.1-2.8,1.1-5.2s-0.4-4.2-1.1-5.2
			s-1.8-1.5-3.3-1.5C84.7,44.2,83.6,44.7,82.9,45.8z"/>
		<path fill="#FFFFFF" d="M112.8,45.4c-0.8-0.7-1.9-1-3.3-1c-2.3,0-3.9,0.6-4.8,1.7c0.6,0.2,1.2,0.5,1.6,1s0.6,1.2,0.6,1.9
			c0,0.8-0.3,1.4-0.8,1.9s-1.2,0.7-2.1,0.7c-0.8,0-1.4-0.3-1.9-0.8s-0.7-1.3-0.7-2.2c0-1.2,0.8-2.4,2.2-3.4c0.8-0.5,1.7-0.9,2.9-1.3
			s2.4-0.5,3.8-0.5c1.3,0,2.5,0.2,3.5,0.5s1.8,0.8,2.3,1.3c0.7,0.8,1.2,1.6,1.5,2.6s0.4,2.4,0.4,4.1v13.3c0,0.8,0.1,1.4,0.3,1.7
			s0.6,0.5,1.1,0.5c0.4,0,0.8-0.1,1.1-0.3s0.7-0.4,1.1-0.8l0.5,0.8c-0.6,0.4-1,0.8-1.4,1s-0.8,0.4-1.3,0.6s-1,0.2-1.7,0.2
			c-1.5,0-2.6-0.4-3.2-1.2s-0.9-1.8-0.9-3.1c-0.9,1.5-2.1,2.6-3.4,3.3s-2.6,1-4,1c-1.1,0-2.1-0.2-3-0.6s-1.7-1-2.2-1.8
			s-0.8-1.8-0.8-3c0-1.2,0.3-2.3,0.9-3.1s1.4-1.6,2.5-2.3s2.5-1.4,4.3-2.1c0.3-0.1,1.1-0.4,2.3-0.9s2.1-1,2.6-1.5s0.8-1,0.8-1.6v-3
			C113.9,47.3,113.6,46,112.8,45.4z M112.8,55.1c-0.5,0.3-1.7,0.9-3.4,1.7c-0.9,0.4-1.7,0.9-2.3,1.3s-1.2,1.1-1.6,1.9
			s-0.7,1.7-0.7,2.9c0,1.4,0.4,2.4,1.1,3.2s1.6,1.1,2.8,1.1c2.1,0,3.9-1.2,5.4-3.6v-9.4C113.7,54.5,113.3,54.8,112.8,55.1z"/>
		<path fill="#FFFFFF" d="M146.5,66.8c0.5,0.7,1.5,1,2.8,1v1c-1-0.1-2-0.1-3-0.1c-2.1,0-3.7,0.2-5,0.7v-5.7c-0.8,2-1.9,3.4-3.3,4.4
			s-2.9,1.4-4.6,1.4c-2.2,0-3.8-0.6-5-1.8c-0.6-0.6-1-1.4-1.2-2.4s-0.4-2.3-0.4-3.8v-12c0-1.5-0.3-2.6-0.8-3.2s-1.5-1-2.8-1v-1
			c1,0.1,2,0.1,3,0.1c2,0,3.7-0.2,5-0.7v18.9c0,1.2,0.1,2.2,0.2,3s0.5,1.4,1,1.8s1.3,0.7,2.4,0.7c1.2,0,2.3-0.4,3.3-1.1
			s1.8-1.8,2.3-3.1s0.8-2.8,0.8-4.4v-9.9c0-1.5-0.3-2.6-0.8-3.2s-1.5-1-2.8-1v-1c1,0.1,2,0.1,3,0.1c2,0,3.7-0.2,5-0.7v20.1
			C145.7,65.1,145.9,66.1,146.5,66.8z M134.7,36.6c0.5-0.9,1.1-2,1.8-3.3s1.3-2.3,1.7-2.9c0.5-0.7,1.2-1.1,1.8-1.1
			c0.4,0,0.7,0.1,1.1,0.4c0.4,0.4,0.7,0.8,0.7,1.3c0,0.5-0.2,1.1-0.7,1.6c-0.5,0.6-1.2,1.3-2.1,2.1s-1.8,1.6-2.6,2.4
			s-1.8,1.7-2.9,2.8l-0.5-0.4C133.6,38.5,134.2,37.5,134.7,36.6z"/>
		<path fill="#FFFFFF" d="M170.4,66c-0.8,1-1.7,1.8-2.9,2.5s-2.6,1-4.2,1c-2,0-3.8-0.5-5.4-1.5s-2.9-2.5-3.8-4.4s-1.4-4.2-1.4-6.8
			c0-2.6,0.5-4.9,1.4-6.9s2.3-3.6,4-4.7s3.6-1.7,5.8-1.7s4,0.5,5.6,1.5c1.5,1,2.2,2.2,2.2,3.7c0,0.8-0.2,1.5-0.7,2s-1.1,0.7-1.8,0.7
			c-0.8,0-1.4-0.2-1.9-0.6s-0.8-1-0.8-1.8c0-0.7,0.2-1.3,0.6-1.7s0.9-0.8,1.4-0.9c-0.3-0.6-0.9-1.1-1.7-1.4s-1.7-0.6-2.6-0.6
			c-1.2,0-2.3,0.4-3.3,1.1s-1.9,2-2.6,3.8s-1,4-1,6.9c0,4,0.6,6.9,1.9,8.7s2.9,2.7,5,2.7c1.4,0,2.7-0.4,3.9-1.2s2.3-2,3.1-3.8
			l0.9,0.3C171.7,63.9,171.1,65,170.4,66z"/>
		<path fill="#FFFFFF" d="M186,44.7c1.4-0.9,3-1.3,4.8-1.3c2.2,0,3.9,0.6,5.1,1.8c0.6,0.7,1,1.5,1.3,2.4s0.4,2.3,0.4,3.9v12.8
			c0,0.9,0.1,1.6,0.4,2.1s0.6,0.9,1.1,1.1s1.2,0.3,2.1,0.3v1c-3-0.1-4.9-0.2-5.8-0.2c-0.9,0-2.7,0.1-5.4,0.2v-1
			c0.8,0,1.4-0.1,1.9-0.3s0.8-0.6,1-1.1s0.3-1.2,0.3-2.1V50.4c0-1.2-0.1-2.1-0.3-2.9s-0.6-1.4-1.1-1.9s-1.4-0.7-2.5-0.7
			c-1.3,0-2.5,0.4-3.5,1.1s-1.8,1.8-2.4,3.1s-0.9,2.8-0.9,4.5v10.7c0,0.9,0.1,1.6,0.3,2.1s0.5,0.9,1,1.1s1.1,0.3,1.9,0.3v1
			c-2.7-0.1-4.5-0.2-5.4-0.2c-0.9,0-2.8,0.1-5.8,0.2v-1c0.9,0,1.6-0.1,2.1-0.3s0.9-0.6,1.1-1.1s0.4-1.2,0.4-2.1V36.9
			c0-1.5-0.3-2.6-0.8-3.2s-1.5-1-2.8-1v-1c1,0.1,2,0.1,3,0.1c2.1,0,3.7-0.2,5-0.7v18C183.4,47.1,184.6,45.6,186,44.7z"/>
		<path fill="#FFFFFF" d="M220.7,44.8c1.6,0.9,2.9,2.4,3.9,4.3s1.4,4.4,1.4,7.4s-0.5,5.4-1.4,7.4s-2.2,3.4-3.9,4.3s-3.5,1.4-5.6,1.4
			s-4-0.5-5.6-1.4s-2.9-2.3-3.9-4.3s-1.4-4.4-1.4-7.4s0.5-5.4,1.4-7.4s2.2-3.4,3.9-4.3s3.5-1.4,5.6-1.4S219.1,43.8,220.7,44.8z
			 M210.5,47.3c-1.1,2-1.7,5-1.7,9.1c0,4.1,0.6,7.1,1.7,9.1s2.6,2.9,4.6,2.9s3.4-1,4.6-2.9s1.7-5,1.7-9.1c0-4.1-0.6-7.2-1.7-9.1
			s-2.6-3-4.6-3S211.6,45.3,210.5,47.3z"/>
		<path fill="#FFFFFF" d="M243.5,76.2v-1.9h21.8v1.9H243.5z"/>
	</g>
	<g>
		<g>
			<path fill="#442C15" d="M35.7,75.2v-1.9h21.8v1.9H35.7z"/>
			<path fill="#442C15" d="M95.2,63.5c1,0.7,1.6,1.8,1.6,3.4c0,1.5-0.5,3.1-1.5,4.6s-2.5,2.8-4.5,3.8c-2,1-4.5,1.5-7.4,1.5
				c-1.7,0-3.2-0.2-4.7-0.5s-2.7-0.8-3.6-1.5s-1.4-1.5-1.4-2.4c0-1.1,0.6-2.2,1.7-3.2s2.6-1.9,4.3-2.7h-0.2c-1.2,0-2.3-0.3-3.3-0.8
				s-1.5-1.5-1.5-2.9c0-1.1,0.5-2.1,1.4-3.1s2.5-2,4.6-3c-1.4-0.5-2.5-1.4-3.3-2.5s-1.2-2.6-1.2-4.3c0-2.5,0.8-4.4,2.4-5.7
				s3.8-1.9,6.4-1.9c1.2,0,2.4,0.1,3.4,0.4c0.3-1.8,0.9-3.2,1.7-4.3c0.9-1.1,2-1.6,3.3-1.6c0.8,0,1.4,0.2,1.9,0.7s0.7,1.1,0.7,1.8
				c0,0.7-0.2,1.2-0.7,1.6s-1,0.7-1.6,0.7c-0.8,0-1.4-0.2-1.8-0.7s-0.6-1.3-0.8-2.3c-0.5,0.4-0.9,1.2-1.3,2.3
				c-0.2,0.7-0.4,1.4-0.5,2c1.5,0.5,2.6,1.4,3.4,2.5s1.2,2.6,1.2,4.4c0,1.7-0.4,3.1-1.1,4.3s-1.8,2-3.1,2.5s-2.9,0.8-4.6,0.8
				c-1.3,0-2.5-0.1-3.5-0.4c-1.3,0.7-2.3,1.3-3,1.9s-1,1.2-1,1.9c0,0.5,0.2,0.9,0.5,1.2s0.9,0.4,1.8,0.4h11.3
				C92.8,62.5,94.1,62.8,95.2,63.5z M78.4,68.6c-0.6,0.9-0.9,1.8-0.9,2.7c0,1,0.3,1.9,1,2.6s1.6,1.2,2.6,1.5
				c1.1,0.3,2.2,0.5,3.3,0.5c1.4,0,2.8-0.3,4.2-0.8s2.5-1.3,3.4-2.3s1.3-2.3,1.3-3.7c0-0.6-0.1-1.1-0.3-1.5S92.5,67,92,66.8
				s-1.3-0.3-2.2-0.3h-8.9C79.8,67,79,67.8,78.4,68.6z M81.9,44.8c-0.7,1-1.1,2.8-1.1,5.2s0.4,4.2,1.1,5.2s1.8,1.5,3.2,1.5
				c1.4,0,2.5-0.5,3.3-1.5s1.1-2.8,1.1-5.2s-0.4-4.2-1.1-5.2s-1.8-1.5-3.3-1.5C83.7,43.2,82.6,43.7,81.9,44.8z"/>
			<path fill="#442C15" d="M111.8,44.4c-0.8-0.7-1.9-1-3.3-1c-2.3,0-3.9,0.6-4.8,1.7c0.6,0.2,1.2,0.5,1.6,1s0.6,1.2,0.6,1.9
				c0,0.8-0.3,1.4-0.8,1.9s-1.2,0.7-2.1,0.7c-0.8,0-1.4-0.3-1.9-0.8s-0.7-1.3-0.7-2.2c0-1.2,0.8-2.4,2.2-3.4
				c0.8-0.5,1.7-0.9,2.9-1.3s2.4-0.5,3.8-0.5c1.3,0,2.5,0.2,3.5,0.5s1.8,0.8,2.3,1.3c0.7,0.8,1.2,1.6,1.5,2.6s0.4,2.4,0.4,4.1v13.3
				c0,0.8,0.1,1.4,0.3,1.7s0.6,0.5,1.1,0.5c0.4,0,0.8-0.1,1.1-0.3s0.7-0.4,1.1-0.8l0.5,0.8c-0.6,0.4-1,0.8-1.4,1s-0.8,0.4-1.3,0.6
				s-1,0.2-1.7,0.2c-1.5,0-2.6-0.4-3.2-1.2s-0.9-1.8-0.9-3.1c-0.9,1.5-2.1,2.6-3.4,3.3s-2.6,1-4,1c-1.1,0-2.1-0.2-3-0.6
				s-1.7-1-2.2-1.8s-0.8-1.8-0.8-3c0-1.2,0.3-2.3,0.9-3.1s1.4-1.6,2.5-2.3s2.5-1.4,4.3-2.1c0.3-0.1,1.1-0.4,2.3-0.9s2.1-1,2.6-1.5
				s0.8-1,0.8-1.6v-3C112.9,46.3,112.6,45,111.8,44.4z M111.8,54.1c-0.5,0.3-1.7,0.9-3.4,1.7c-0.9,0.4-1.7,0.9-2.3,1.3
				s-1.2,1.1-1.6,1.9s-0.7,1.7-0.7,2.9c0,1.4,0.4,2.4,1.1,3.2s1.6,1.1,2.8,1.1c2.1,0,3.9-1.2,5.4-3.6v-9.4
				C112.7,53.5,112.3,53.8,111.8,54.1z"/>
			<path fill="#442C15" d="M145.5,65.8c0.5,0.7,1.5,1,2.8,1v1c-1-0.1-2-0.1-3-0.1c-2.1,0-3.7,0.2-5,0.7v-5.7c-0.8,2-1.9,3.4-3.3,4.4
				s-2.9,1.4-4.6,1.4c-2.2,0-3.8-0.6-5-1.8c-0.6-0.6-1-1.4-1.2-2.4s-0.4-2.3-0.4-3.8v-12c0-1.5-0.3-2.6-0.8-3.2s-1.5-1-2.8-1v-1
				c1,0.1,2,0.1,3,0.1c2,0,3.7-0.2,5-0.7v18.9c0,1.2,0.1,2.2,0.2,3s0.5,1.4,1,1.8s1.3,0.7,2.4,0.7c1.2,0,2.3-0.4,3.3-1.1
				s1.8-1.8,2.3-3.1s0.8-2.8,0.8-4.4v-9.9c0-1.5-0.3-2.6-0.8-3.2s-1.5-1-2.8-1v-1c1,0.1,2,0.1,3,0.1c2,0,3.7-0.2,5-0.7v20.1
				C144.7,64.1,144.9,65.1,145.5,65.8z M133.7,35.6c0.5-0.9,1.1-2,1.8-3.3s1.3-2.3,1.7-2.9c0.5-0.7,1.2-1.1,1.8-1.1
				c0.4,0,0.7,0.1,1.1,0.4c0.4,0.4,0.7,0.8,0.7,1.3c0,0.5-0.2,1.1-0.7,1.6c-0.5,0.6-1.2,1.3-2.1,2.1s-1.8,1.6-2.6,2.4
				s-1.8,1.7-2.9,2.8l-0.5-0.4C132.6,37.5,133.2,36.5,133.7,35.6z"/>
			<path fill="#442C15" d="M169.4,65c-0.8,1-1.7,1.8-2.9,2.5s-2.6,1-4.2,1c-2,0-3.8-0.5-5.4-1.5s-2.9-2.5-3.8-4.4s-1.4-4.2-1.4-6.8
				c0-2.6,0.5-4.9,1.4-6.9s2.3-3.6,4-4.7s3.6-1.7,5.8-1.7s4,0.5,5.6,1.5c1.5,1,2.2,2.2,2.2,3.7c0,0.8-0.2,1.5-0.7,2
				s-1.1,0.7-1.8,0.7c-0.8,0-1.4-0.2-1.9-0.6s-0.8-1-0.8-1.8c0-0.7,0.2-1.3,0.6-1.7s0.9-0.8,1.4-0.9c-0.3-0.6-0.9-1.1-1.7-1.4
				s-1.7-0.6-2.6-0.6c-1.2,0-2.3,0.4-3.3,1.1s-1.9,2-2.6,3.8s-1,4-1,6.9c0,4,0.6,6.9,1.9,8.7s2.9,2.7,5,2.7c1.4,0,2.7-0.4,3.9-1.2
				s2.3-2,3.1-3.8l0.9,0.3C170.7,62.9,170.1,64,169.4,65z"/>
			<path fill="#442C15" d="M185,43.7c1.4-0.9,3-1.3,4.8-1.3c2.2,0,3.9,0.6,5.1,1.8c0.6,0.7,1,1.5,1.3,2.4s0.4,2.3,0.4,3.9v12.8
				c0,0.9,0.1,1.6,0.4,2.1s0.6,0.9,1.1,1.1s1.2,0.3,2.1,0.3v1c-3-0.1-4.9-0.2-5.8-0.2c-0.9,0-2.7,0.1-5.4,0.2v-1
				c0.8,0,1.4-0.1,1.9-0.3s0.8-0.6,1-1.1s0.3-1.2,0.3-2.1V49.4c0-1.2-0.1-2.1-0.3-2.9s-0.6-1.4-1.1-1.9s-1.4-0.7-2.5-0.7
				c-1.3,0-2.5,0.4-3.5,1.1s-1.8,1.8-2.4,3.1s-0.9,2.8-0.9,4.5v10.7c0,0.9,0.1,1.6,0.3,2.1s0.5,0.9,1,1.1s1.1,0.3,1.9,0.3v1
				c-2.7-0.1-4.5-0.2-5.4-0.2c-0.9,0-2.8,0.1-5.8,0.2v-1c0.9,0,1.6-0.1,2.1-0.3s0.9-0.6,1.1-1.1s0.4-1.2,0.4-2.1V35.9
				c0-1.5-0.3-2.6-0.8-3.2s-1.5-1-2.8-1v-1c1,0.1,2,0.1,3,0.1c2.1,0,3.7-0.2,5-0.7v18C182.4,46.1,183.6,44.6,185,43.7z"/>
			<path fill="#442C15" d="M219.7,43.8c1.6,0.9,2.9,2.4,3.9,4.3s1.4,4.4,1.4,7.4s-0.5,5.4-1.4,7.4s-2.2,3.4-3.9,4.3
				s-3.5,1.4-5.6,1.4s-4-0.5-5.6-1.4s-2.9-2.3-3.9-4.3s-1.4-4.4-1.4-7.4s0.5-5.4,1.4-7.4s2.2-3.4,3.9-4.3s3.5-1.4,5.6-1.4
				S218.1,42.8,219.7,43.8z M209.5,46.3c-1.1,2-1.7,5-1.7,9.1c0,4.1,0.6,7.1,1.7,9.1s2.6,2.9,4.6,2.9s3.4-1,4.6-2.9s1.7-5,1.7-9.1
				c0-4.1-0.6-7.2-1.7-9.1s-2.6-3-4.6-3S210.6,44.3,209.5,46.3z"/>
			<path fill="#442C15" d="M242.5,75.2v-1.9h21.8v1.9H242.5z"/>
		</g>
	</g>
</g>
<g>
	<g opacity="0.35">
		<path fill="#FFFFFF" d="M118.6,85.6c0.6-0.4,1.1-0.7,1.4-0.8s0.6-0.3,0.7-0.3c0.1,0,0.2,0.1,0.3,0.2s0.1,0.3,0.1,0.5
			c0,0.3,0,0.6-0.1,0.9s-0.2,0.7-0.3,1.2l0.1,0.1c0.6-1.1,1.1-1.9,1.5-2.4s0.7-0.7,1-0.7c0.2,0,0.4,0.1,0.5,0.2s0.2,0.3,0.2,0.6
			c0,0.3-0.1,0.8-0.3,1.2s-0.5,1.1-0.9,1.7l-0.2-0.1c0.1-0.3,0.1-0.5,0.2-0.6s0-0.2,0-0.3c0-0.2,0-0.4-0.1-0.5s-0.2-0.2-0.4-0.2
			c-0.3,0-0.6,0.2-0.9,0.6s-0.7,0.9-1,1.6c-0.4,0.8-0.7,1.6-0.9,2.4s-0.4,1.3-0.4,1.5c0,0.1,0,0.2,0.1,0.3s0.1,0.1,0.3,0.1
			c0.1,0,0.2,0,0.3-0.1s0.3-0.2,0.5-0.4l0,0.4c-0.6,0.6-1.2,1-1.7,1.3s-0.9,0.5-1.2,0.5c-0.2,0-0.3-0.1-0.4-0.2s-0.1-0.3-0.1-0.5
			c0-0.2,0.1-0.5,0.2-0.9s0.5-1.5,1.1-3c0.4-0.9,0.6-1.6,0.8-2.2s0.2-1,0.2-1.4c0-0.2,0-0.4-0.1-0.5s-0.2-0.2-0.4-0.2L118.6,85.6z"
			/>
		<path fill="#FFFFFF" d="M126,85.4c0.5-0.2,1-0.5,1.5-0.7s0.7-0.4,0.8-0.4c0,0,0.1,0,0.1,0s0,0,0,0.1c0,0-0.3,0.6-0.8,1.8
			s-1,2.3-1.5,3.5c-0.4,1-0.7,1.8-0.8,2.1s-0.2,0.6-0.2,0.8c0,0.1,0,0.2,0.1,0.3s0.1,0.1,0.2,0.1c0.1,0,0.3-0.1,0.5-0.4
			s0.4-0.6,0.7-1.1l-0.3,1.4c-0.8,0.6-1.4,1.1-1.9,1.3s-0.7,0.4-0.9,0.4c-0.2,0-0.3-0.1-0.4-0.2s-0.2-0.3-0.2-0.6
			c0-0.4,0.4-1.6,1.2-3.4S125.6,86.9,126,85.4z M126.5,82.3c0.3-0.2,0.5-0.4,0.7-0.7s0.5-0.5,0.7-0.8c0.4,0.1,0.7,0.2,1,0.2
			s0.6,0.1,1,0.1c-0.2,0.4-0.5,0.8-0.9,1.1s-0.8,0.4-1.3,0.4c-0.2,0-0.4,0-0.6-0.1S126.7,82.4,126.5,82.3z"/>
		<path fill="#FFFFFF" d="M133.8,87.9l-0.3-0.1c0.1-0.2,0.2-0.3,0.2-0.4s0.1-0.3,0.1-0.4c0-0.4-0.1-0.6-0.4-0.9s-0.7-0.4-1.1-0.4
			c-0.4,0-0.8,0.1-1.1,0.3s-0.5,0.5-0.5,0.8c0,0.2,0.1,0.4,0.3,0.7s0.6,0.6,1.3,1c0,0,0.1,0.1,0.2,0.1c0.8,0.5,1.2,1.1,1.2,1.6
			c0,0.3-0.1,0.6-0.3,1s-0.5,0.8-0.9,1.3c-0.7,0.8-1.2,1.3-1.6,1.6s-0.9,0.4-1.4,0.4c-0.5,0-0.9-0.1-1.2-0.3s-0.6-0.6-0.7-1
			c0.2-0.4,0.5-0.8,0.8-1.3s0.7-0.9,1.2-1.4l0.2,0.1c-0.2,0.2-0.3,0.4-0.4,0.5s-0.1,0.3-0.1,0.5c0,0.3,0.1,0.6,0.4,0.8
			s0.6,0.3,1,0.3c0.4,0,0.8-0.1,1.2-0.3s0.5-0.5,0.5-0.8c0-0.4-0.4-0.9-1.3-1.5l-0.1-0.1c-0.6-0.4-1-0.7-1.2-1s-0.3-0.6-0.3-1
			c0-0.3,0.1-0.5,0.2-0.8s0.4-0.6,0.7-1c0.5-0.6,1.1-1.2,1.7-1.5s1.1-0.6,1.6-0.6c0.4,0,0.8,0.1,1.2,0.4s0.5,0.5,0.5,0.7
			c0,0.1-0.1,0.3-0.4,0.7S134.3,87.2,133.8,87.9z"/>
		<path fill="#FFFFFF" d="M139.1,82.4c0.3-0.1,0.7-0.3,1-0.5s0.7-0.4,1.1-0.6c-0.1,0.5-0.3,1-0.5,1.5s-0.4,1.2-0.7,1.9h2.1l-1.2,0.9
			l-1.3,0c-0.3,1-0.8,2.3-1.3,3.7s-0.8,2.3-0.8,2.7c0,0.2,0,0.4,0.1,0.5s0.2,0.2,0.3,0.2c0.3-0.2,0.5-0.5,0.7-0.8s0.4-0.6,0.6-0.9
			l0.3,0.5c-0.7,1-1.3,1.8-1.9,2.3s-1.1,0.8-1.4,0.8c-0.2,0-0.4-0.1-0.6-0.4s-0.2-0.6-0.2-1c0-0.5,0.4-1.7,1.1-3.5
			c0.1-0.4,0.3-0.7,0.3-0.8c0.1-0.2,0.2-0.5,0.3-0.9c0.5-1.2,0.7-1.8,0.7-2c0-0.1-0.1-0.3-0.2-0.4s-0.3-0.3-0.6-0.4l0.7-0.6l0.7,0
			c0.1-0.4,0.2-0.9,0.4-1.5S139,82.5,139.1,82.4z"/>
		<path fill="#FFFFFF" d="M145.8,84l0.4,0.1c-1.1,1-2,2.2-2.6,3.4s-1,2.5-1,3.5c0,0.5,0.1,1,0.4,1.3s0.6,0.5,1,0.5
			c0.1,0,0.3,0,0.4-0.1s0.3-0.1,0.4-0.2c0.6-0.9,1-1.9,1.4-3s0.5-2,0.5-2.8c0-0.3-0.1-0.6-0.2-0.8s-0.3-0.3-0.4-0.3
			c-0.1,0-0.2,0-0.2,0s-0.1,0.1-0.2,0.1l-0.1-0.1l2.3-1.9c0.2,0,0.4,0.2,0.6,0.5s0.2,0.7,0.2,1.2c0,1-0.2,2-0.7,3.1
			s-1.1,2.1-1.9,3.1c-0.8,0.9-1.5,1.6-2.2,2.1s-1.3,0.8-1.6,0.8c-0.4,0-0.8-0.2-1.1-0.6s-0.4-0.9-0.4-1.5c0-1.3,0.5-2.8,1.4-4.3
			S144.2,85.3,145.8,84z"/>
		<path fill="#FFFFFF" d="M150,85.6c0.6-0.4,1.1-0.7,1.4-0.8s0.6-0.3,0.7-0.3c0.1,0,0.2,0.1,0.3,0.2s0.1,0.3,0.1,0.5
			c0,0.3,0,0.6-0.1,0.9c-0.1,0.4-0.2,0.7-0.3,1.2l0.1,0.1c0.6-1.1,1.1-1.9,1.5-2.4c0.4-0.5,0.7-0.7,1-0.7c0.2,0,0.4,0.1,0.5,0.2
			c0.1,0.2,0.2,0.3,0.2,0.6c0,0.3-0.1,0.8-0.3,1.2c-0.2,0.5-0.5,1.1-0.9,1.7l-0.2-0.1c0.1-0.3,0.1-0.5,0.2-0.6c0-0.1,0-0.2,0-0.3
			c0-0.2,0-0.4-0.1-0.5c-0.1-0.1-0.2-0.2-0.4-0.2c-0.3,0-0.6,0.2-0.9,0.6s-0.7,0.9-1,1.6c-0.4,0.8-0.7,1.6-0.9,2.4s-0.4,1.3-0.4,1.5
			c0,0.1,0,0.2,0.1,0.3s0.1,0.1,0.3,0.1c0.1,0,0.2,0,0.3-0.1s0.3-0.2,0.5-0.4l0,0.4c-0.6,0.6-1.2,1-1.7,1.3s-0.9,0.5-1.2,0.5
			c-0.2,0-0.3-0.1-0.4-0.2s-0.1-0.3-0.1-0.5c0-0.2,0.1-0.5,0.2-0.9s0.5-1.5,1.1-3c0.4-0.9,0.6-1.6,0.8-2.2s0.2-1,0.2-1.4
			c0-0.2,0-0.4-0.1-0.5s-0.2-0.2-0.4-0.2L150,85.6z"/>
		<path fill="#FFFFFF" d="M161.5,92.1l0.1,0.4c-0.5,0.6-1.1,1.1-1.6,1.4c-0.5,0.4-1,0.6-1.2,0.6c-0.2,0-0.3-0.1-0.4-0.2
			s-0.1-0.3-0.1-0.5c0-0.4,0.1-0.8,0.2-1.4c0.2-0.5,0.4-1.2,0.7-1.8l-0.1,0c-0.9,1.2-1.7,2.2-2.5,2.9c-0.8,0.7-1.4,1.1-1.8,1.1
			c-0.2,0-0.4-0.1-0.5-0.3c-0.1-0.2-0.2-0.5-0.2-0.8c0-0.6,0.1-1.3,0.4-2.1c0.2-0.8,0.6-1.6,1-2.4c0.4-0.7,0.8-1.4,1.2-1.9
			c0.4-0.6,0.9-1,1.3-1.4c0.5-0.4,1-0.7,1.6-1c0.6-0.3,1-0.4,1.2-0.4c0.2,0,0.3,0.1,0.6,0.3c0.2,0.2,0.4,0.4,0.5,0.6
			c0.2-0.1,0.4-0.2,0.6-0.3s0.3-0.2,0.4-0.2c0,0,0.1,0,0.1,0c0,0,0,0,0,0.1c0,0.1-0.1,0.4-0.4,1c-0.3,0.6-0.5,1.2-0.8,1.8
			c-0.5,1.2-0.9,2.2-1.1,3c-0.3,0.8-0.4,1.4-0.4,1.8c0,0.1,0,0.3,0.1,0.3c0.1,0.1,0.1,0.1,0.2,0.1c0.1,0,0.2-0.1,0.4-0.2
			C161.2,92.5,161.3,92.3,161.5,92.1z M160.4,86.4c-0.1-0.3-0.2-0.5-0.4-0.7c-0.2-0.2-0.4-0.3-0.6-0.3c-0.1,0-0.3,0.1-0.5,0.3
			c-0.2,0.2-0.4,0.4-0.6,0.8c-0.5,0.8-1,1.7-1.4,2.8c-0.4,1.1-0.6,1.9-0.6,2.6c0,0.2,0,0.4,0.1,0.6c0.1,0.1,0.2,0.2,0.3,0.2
			c0.2,0,0.6-0.3,1.1-0.8c0.5-0.6,1-1.3,1.5-2.1c0.1-0.2,0.4-0.7,0.7-1.5c0.3-0.8,0.6-1.4,0.9-2l0-0.1L160.4,86.4z"/>
		<path fill="#FFFFFF" d="M164.2,94c-0.4,0-0.7,0.1-1,0.2c-0.3,0.1-0.6,0.2-0.9,0.3c0.3-0.8,0.7-2,1.3-3.4c1.2-3.2,1.8-5.3,1.8-6.3
			c0.4-0.1,0.8-0.2,1.2-0.4c0.5-0.2,0.7-0.3,0.8-0.3c0.1,0,0.1,0,0.1,0.1c0,0,0,0.1,0,0.2c0,0.3-0.3,1.3-1,2.9
			c-0.7,1.6-1.2,2.9-1.6,4l0.1,0c0.6-1,1.2-2,2-3s1.7-2.1,2.8-3.2c0.9-0.4,1.5-0.7,1.8-0.8c0.3-0.1,0.5-0.2,0.5-0.2
			c0.1,0,0.1,0,0.2,0.1c0,0,0.1,0.1,0.1,0.2c0,0.2-0.4,1.2-1.2,2.8l-0.2,0.4c-0.5,1-0.9,2-1.2,2.8c-0.3,0.8-0.4,1.4-0.4,1.7
			c0,0.2,0,0.4,0.1,0.5s0.2,0.2,0.3,0.2c0.1,0,0.1,0,0.2,0c0.1,0,0.2-0.1,0.3-0.1v0.3c-0.2,0.1-0.6,0.3-1,0.6c-1.1,0.7-1.8,1-1.9,1
			c-0.2,0-0.3-0.1-0.4-0.2s-0.1-0.3-0.1-0.5c0-0.3,0.1-0.7,0.3-1.2c0.2-0.5,0.6-1.4,1.1-2.5c0.1-0.3,0.3-0.6,0.5-1.1
			c0.5-1,0.7-1.6,0.7-1.8c0-0.1,0-0.2-0.1-0.2c0-0.1-0.1-0.1-0.2-0.1c-0.4,0-1.2,0.7-2.2,2.1S165.1,92,164.2,94z"/>
		<path fill="#FFFFFF" d="M176.3,82.4c0.3-0.1,0.7-0.3,1-0.5c0.3-0.2,0.7-0.4,1.1-0.6c-0.2,0.5-0.3,1-0.5,1.5
			c-0.2,0.5-0.4,1.2-0.7,1.9h2.1l-1.2,0.9l-1.3,0c-0.3,1-0.8,2.3-1.3,3.7c-0.6,1.4-0.8,2.3-0.8,2.7c0,0.2,0,0.4,0.1,0.5
			c0.1,0.1,0.2,0.2,0.3,0.2c0.3-0.2,0.5-0.5,0.7-0.8c0.2-0.3,0.4-0.6,0.6-0.9l0.3,0.5c-0.7,1-1.3,1.8-1.9,2.3s-1.1,0.8-1.4,0.8
			c-0.2,0-0.4-0.1-0.6-0.4c-0.2-0.3-0.2-0.6-0.2-1c0-0.5,0.4-1.7,1.1-3.5c0.1-0.4,0.3-0.7,0.3-0.8c0.1-0.2,0.2-0.5,0.3-0.9
			c0.5-1.2,0.7-1.8,0.7-2c0-0.1-0.1-0.3-0.2-0.4s-0.3-0.3-0.6-0.4l0.7-0.6l0.7,0c0.1-0.4,0.2-0.9,0.4-1.5S176.2,82.5,176.3,82.4z"/>
		<path fill="#FFFFFF" d="M182.4,90.9l0.9-0.1c-0.4,1-1,1.9-1.8,2.7c-0.9,0.8-1.6,1.2-2.1,1.2c-0.4,0-0.8-0.2-1-0.6
			s-0.4-0.9-0.4-1.4c0-0.9,0.2-1.9,0.6-2.9c0.4-1.1,1-2,1.7-2.8c0.7-0.8,1.4-1.4,2.2-1.9s1.5-0.7,2-0.7c0.2,0,0.4,0.1,0.6,0.2
			s0.2,0.3,0.2,0.5c0,0.3-0.1,0.7-0.4,1.1s-0.7,0.8-1.1,1.2c-0.6,0.5-1.2,0.9-1.8,1.1c-0.6,0.3-1.1,0.4-1.6,0.5
			c-0.2,0.4-0.3,0.7-0.3,1.1c-0.1,0.4-0.1,0.8-0.1,1.2c0,0.6,0.1,1,0.3,1.3c0.2,0.3,0.5,0.5,0.9,0.5c0.1,0,0.1,0,0.2,0s0.1,0,0.1,0
			c0.2-0.2,0.4-0.5,0.6-0.9C182.1,91.8,182.2,91.4,182.4,90.9z M180.7,87.9c0.1,0,0.2,0.1,0.4,0.1s0.3,0,0.5,0c0,0,0.1,0,0.2,0
			c0.1,0,0.2,0,0.3,0c0.3-0.2,0.6-0.5,0.8-0.8c0.2-0.3,0.3-0.6,0.3-0.9c0-0.2-0.1-0.3-0.2-0.5c-0.1-0.1-0.2-0.2-0.4-0.2
			c-0.1,0-0.1,0-0.3,0.1c0,0,0,0,0,0c-0.4,0.3-0.7,0.6-0.9,1S180.8,87.4,180.7,87.9z"/>
	</g>
	<g>
		<g>
			<path fill="#442C15" d="M117.6,84.6c0.6-0.4,1.1-0.7,1.4-0.8s0.6-0.3,0.7-0.3c0.1,0,0.2,0.1,0.3,0.2s0.1,0.3,0.1,0.5
				c0,0.3,0,0.6-0.1,0.9s-0.2,0.7-0.3,1.2l0.1,0.1c0.6-1.1,1.1-1.9,1.5-2.4s0.7-0.7,1-0.7c0.2,0,0.4,0.1,0.5,0.2s0.2,0.3,0.2,0.6
				c0,0.3-0.1,0.8-0.3,1.2s-0.5,1.1-0.9,1.7l-0.2-0.1c0.1-0.3,0.1-0.5,0.2-0.6s0-0.2,0-0.3c0-0.2,0-0.4-0.1-0.5s-0.2-0.2-0.4-0.2
				c-0.3,0-0.6,0.2-0.9,0.6s-0.7,0.9-1,1.6c-0.4,0.8-0.7,1.6-0.9,2.4s-0.4,1.3-0.4,1.5c0,0.1,0,0.2,0.1,0.3s0.1,0.1,0.3,0.1
				c0.1,0,0.2,0,0.3-0.1s0.3-0.2,0.5-0.4l0,0.4c-0.6,0.6-1.2,1-1.7,1.3s-0.9,0.5-1.2,0.5c-0.2,0-0.3-0.1-0.4-0.2s-0.1-0.3-0.1-0.5
				c0-0.2,0.1-0.5,0.2-0.9s0.5-1.5,1.1-3c0.4-0.9,0.6-1.6,0.8-2.2s0.2-1,0.2-1.4c0-0.2,0-0.4-0.1-0.5s-0.2-0.2-0.4-0.2L117.6,84.6z"
				/>
			<path fill="#442C15" d="M125,84.4c0.5-0.2,1-0.5,1.5-0.7s0.7-0.4,0.8-0.4c0,0,0.1,0,0.1,0s0,0,0,0.1c0,0-0.3,0.6-0.8,1.8
				s-1,2.3-1.5,3.5c-0.4,1-0.7,1.8-0.8,2.1s-0.2,0.6-0.2,0.8c0,0.1,0,0.2,0.1,0.3s0.1,0.1,0.2,0.1c0.1,0,0.3-0.1,0.5-0.4
				s0.4-0.6,0.7-1.1l-0.3,1.4c-0.8,0.6-1.4,1.1-1.9,1.3s-0.7,0.4-0.9,0.4c-0.2,0-0.3-0.1-0.4-0.2s-0.2-0.3-0.2-0.6
				c0-0.4,0.4-1.6,1.2-3.4S124.6,85.9,125,84.4z M125.5,81.3c0.3-0.2,0.5-0.4,0.7-0.7s0.5-0.5,0.7-0.8c0.4,0.1,0.7,0.2,1,0.2
				s0.6,0.1,1,0.1c-0.2,0.4-0.5,0.8-0.9,1.1s-0.8,0.4-1.3,0.4c-0.2,0-0.4,0-0.6-0.1S125.7,81.4,125.5,81.3z"/>
			<path fill="#442C15" d="M132.8,86.9l-0.3-0.1c0.1-0.2,0.2-0.3,0.2-0.4s0.1-0.3,0.1-0.4c0-0.4-0.1-0.6-0.4-0.9s-0.7-0.4-1.1-0.4
				c-0.4,0-0.8,0.1-1.1,0.3s-0.5,0.5-0.5,0.8c0,0.2,0.1,0.4,0.3,0.7s0.6,0.6,1.3,1c0,0,0.1,0.1,0.2,0.1c0.8,0.5,1.2,1.1,1.2,1.6
				c0,0.3-0.1,0.6-0.3,1s-0.5,0.8-0.9,1.3c-0.7,0.8-1.2,1.3-1.6,1.6s-0.9,0.4-1.4,0.4c-0.5,0-0.9-0.1-1.2-0.3s-0.6-0.6-0.7-1
				c0.2-0.4,0.5-0.8,0.8-1.3s0.7-0.9,1.2-1.4l0.2,0.1c-0.2,0.2-0.3,0.4-0.4,0.5s-0.1,0.3-0.1,0.5c0,0.3,0.1,0.6,0.4,0.8
				s0.6,0.3,1,0.3c0.4,0,0.8-0.1,1.2-0.3s0.5-0.5,0.5-0.8c0-0.4-0.4-0.9-1.3-1.5l-0.1-0.1c-0.6-0.4-1-0.7-1.2-1s-0.3-0.6-0.3-1
				c0-0.3,0.1-0.5,0.2-0.8s0.4-0.6,0.7-1c0.5-0.6,1.1-1.2,1.7-1.5s1.1-0.6,1.6-0.6c0.4,0,0.8,0.1,1.2,0.4s0.5,0.5,0.5,0.7
				c0,0.1-0.1,0.3-0.4,0.7S133.3,86.2,132.8,86.9z"/>
			<path fill="#442C15" d="M138.1,81.4c0.3-0.1,0.7-0.3,1-0.5s0.7-0.4,1.1-0.6c-0.1,0.5-0.3,1-0.5,1.5s-0.4,1.2-0.7,1.9h2.1
				l-1.2,0.9l-1.3,0c-0.3,1-0.8,2.3-1.3,3.7s-0.8,2.3-0.8,2.7c0,0.2,0,0.4,0.1,0.5s0.2,0.2,0.3,0.2c0.3-0.2,0.5-0.5,0.7-0.8
				s0.4-0.6,0.6-0.9l0.3,0.5c-0.7,1-1.3,1.8-1.9,2.3s-1.1,0.8-1.4,0.8c-0.2,0-0.4-0.1-0.6-0.4s-0.2-0.6-0.2-1c0-0.5,0.4-1.7,1.1-3.5
				c0.1-0.4,0.3-0.7,0.3-0.8c0.1-0.2,0.2-0.5,0.3-0.9c0.5-1.2,0.7-1.8,0.7-2c0-0.1-0.1-0.3-0.2-0.4s-0.3-0.3-0.6-0.4l0.7-0.6l0.7,0
				c0.1-0.4,0.2-0.9,0.4-1.5S138,81.5,138.1,81.4z"/>
			<path fill="#442C15" d="M144.8,83l0.4,0.1c-1.1,1-2,2.2-2.6,3.4s-1,2.5-1,3.5c0,0.5,0.1,1,0.4,1.3s0.6,0.5,1,0.5
				c0.1,0,0.3,0,0.4-0.1s0.3-0.1,0.4-0.2c0.6-0.9,1-1.9,1.4-3s0.5-2,0.5-2.8c0-0.3-0.1-0.6-0.2-0.8s-0.3-0.3-0.4-0.3
				c-0.1,0-0.2,0-0.2,0s-0.1,0.1-0.2,0.1l-0.1-0.1l2.3-1.9c0.2,0,0.4,0.2,0.6,0.5s0.2,0.7,0.2,1.2c0,1-0.2,2-0.7,3.1
				s-1.1,2.1-1.9,3.1c-0.8,0.9-1.5,1.6-2.2,2.1s-1.3,0.8-1.6,0.8c-0.4,0-0.8-0.2-1.1-0.6s-0.4-0.9-0.4-1.5c0-1.3,0.5-2.8,1.4-4.3
				S143.2,84.3,144.8,83z"/>
			<path fill="#442C15" d="M149,84.6c0.6-0.4,1.1-0.7,1.4-0.8s0.6-0.3,0.7-0.3c0.1,0,0.2,0.1,0.3,0.2s0.1,0.3,0.1,0.5
				c0,0.3,0,0.6-0.1,0.9c-0.1,0.4-0.2,0.7-0.3,1.2l0.1,0.1c0.6-1.1,1.1-1.9,1.5-2.4c0.4-0.5,0.7-0.7,1-0.7c0.2,0,0.4,0.1,0.5,0.2
				c0.1,0.2,0.2,0.3,0.2,0.6c0,0.3-0.1,0.8-0.3,1.2c-0.2,0.5-0.5,1.1-0.9,1.7l-0.2-0.1c0.1-0.3,0.1-0.5,0.2-0.6c0-0.1,0-0.2,0-0.3
				c0-0.2,0-0.4-0.1-0.5c-0.1-0.1-0.2-0.2-0.4-0.2c-0.3,0-0.6,0.2-0.9,0.6s-0.7,0.9-1,1.6c-0.4,0.8-0.7,1.6-0.9,2.4
				s-0.4,1.3-0.4,1.5c0,0.1,0,0.2,0.1,0.3s0.1,0.1,0.3,0.1c0.1,0,0.2,0,0.3-0.1s0.3-0.2,0.5-0.4l0,0.4c-0.6,0.6-1.2,1-1.7,1.3
				s-0.9,0.5-1.2,0.5c-0.2,0-0.3-0.1-0.4-0.2s-0.1-0.3-0.1-0.5c0-0.2,0.1-0.5,0.2-0.9s0.5-1.5,1.1-3c0.4-0.9,0.6-1.6,0.8-2.2
				s0.2-1,0.2-1.4c0-0.2,0-0.4-0.1-0.5s-0.2-0.2-0.4-0.2L149,84.6z"/>
			<path fill="#442C15" d="M160.5,91.1l0.1,0.4c-0.5,0.6-1.1,1.1-1.6,1.4c-0.5,0.4-1,0.6-1.2,0.6c-0.2,0-0.3-0.1-0.4-0.2
				s-0.1-0.3-0.1-0.5c0-0.4,0.1-0.8,0.2-1.4c0.2-0.5,0.4-1.2,0.7-1.8l-0.1,0c-0.9,1.2-1.7,2.2-2.5,2.9c-0.8,0.7-1.4,1.1-1.8,1.1
				c-0.2,0-0.4-0.1-0.5-0.3c-0.1-0.2-0.2-0.5-0.2-0.8c0-0.6,0.1-1.3,0.4-2.1c0.2-0.8,0.6-1.6,1-2.4c0.4-0.7,0.8-1.4,1.2-1.9
				c0.4-0.6,0.9-1,1.3-1.4c0.5-0.4,1-0.7,1.6-1c0.6-0.3,1-0.4,1.2-0.4c0.2,0,0.3,0.1,0.6,0.3c0.2,0.2,0.4,0.4,0.5,0.6
				c0.2-0.1,0.4-0.2,0.6-0.3s0.3-0.2,0.4-0.2c0,0,0.1,0,0.1,0c0,0,0,0,0,0.1c0,0.1-0.1,0.4-0.4,1c-0.3,0.6-0.5,1.2-0.8,1.8
				c-0.5,1.2-0.9,2.2-1.1,3c-0.3,0.8-0.4,1.4-0.4,1.8c0,0.1,0,0.3,0.1,0.3c0.1,0.1,0.1,0.1,0.2,0.1c0.1,0,0.2-0.1,0.4-0.2
				C160.2,91.5,160.3,91.3,160.5,91.1z M159.4,85.4c-0.1-0.3-0.2-0.5-0.4-0.7c-0.2-0.2-0.4-0.3-0.6-0.3c-0.1,0-0.3,0.1-0.5,0.3
				c-0.2,0.2-0.4,0.4-0.6,0.8c-0.5,0.8-1,1.7-1.4,2.8c-0.4,1.1-0.6,1.9-0.6,2.6c0,0.2,0,0.4,0.1,0.6c0.1,0.1,0.2,0.2,0.3,0.2
				c0.2,0,0.6-0.3,1.1-0.8c0.5-0.6,1-1.3,1.5-2.1c0.1-0.2,0.4-0.7,0.7-1.5c0.3-0.8,0.6-1.4,0.9-2l0-0.1L159.4,85.4z"/>
			<path fill="#442C15" d="M163.2,93c-0.4,0-0.7,0.1-1,0.2c-0.3,0.1-0.6,0.2-0.9,0.3c0.3-0.8,0.7-2,1.3-3.4c1.2-3.2,1.8-5.3,1.8-6.3
				c0.4-0.1,0.8-0.2,1.2-0.4c0.5-0.2,0.7-0.3,0.8-0.3c0.1,0,0.1,0,0.1,0.1c0,0,0,0.1,0,0.2c0,0.3-0.3,1.3-1,2.9
				c-0.7,1.6-1.2,2.9-1.6,4l0.1,0c0.6-1,1.2-2,2-3s1.7-2.1,2.8-3.2c0.9-0.4,1.5-0.7,1.8-0.8c0.3-0.1,0.5-0.2,0.5-0.2
				c0.1,0,0.1,0,0.2,0.1c0,0,0.1,0.1,0.1,0.2c0,0.2-0.4,1.2-1.2,2.8l-0.2,0.4c-0.5,1-0.9,2-1.2,2.8c-0.3,0.8-0.4,1.4-0.4,1.7
				c0,0.2,0,0.4,0.1,0.5s0.2,0.2,0.3,0.2c0.1,0,0.1,0,0.2,0c0.1,0,0.2-0.1,0.3-0.1v0.3c-0.2,0.1-0.6,0.3-1,0.6c-1.1,0.7-1.8,1-1.9,1
				c-0.2,0-0.3-0.1-0.4-0.2s-0.1-0.3-0.1-0.5c0-0.3,0.1-0.7,0.3-1.2c0.2-0.5,0.6-1.4,1.1-2.5c0.1-0.3,0.3-0.6,0.5-1.1
				c0.5-1,0.7-1.6,0.7-1.8c0-0.1,0-0.2-0.1-0.2c0-0.1-0.1-0.1-0.2-0.1c-0.4,0-1.2,0.7-2.2,2.1S164.1,91,163.2,93z"/>
			<path fill="#442C15" d="M175.3,81.4c0.3-0.1,0.7-0.3,1-0.5c0.3-0.2,0.7-0.4,1.1-0.6c-0.2,0.5-0.3,1-0.5,1.5
				c-0.2,0.5-0.4,1.2-0.7,1.9h2.1l-1.2,0.9l-1.3,0c-0.3,1-0.8,2.3-1.3,3.7c-0.6,1.4-0.8,2.3-0.8,2.7c0,0.2,0,0.4,0.1,0.5
				c0.1,0.1,0.2,0.2,0.3,0.2c0.3-0.2,0.5-0.5,0.7-0.8c0.2-0.3,0.4-0.6,0.6-0.9l0.3,0.5c-0.7,1-1.3,1.8-1.9,2.3s-1.1,0.8-1.4,0.8
				c-0.2,0-0.4-0.1-0.6-0.4c-0.2-0.3-0.2-0.6-0.2-1c0-0.5,0.4-1.7,1.1-3.5c0.1-0.4,0.3-0.7,0.3-0.8c0.1-0.2,0.2-0.5,0.3-0.9
				c0.5-1.2,0.7-1.8,0.7-2c0-0.1-0.1-0.3-0.2-0.4s-0.3-0.3-0.6-0.4l0.7-0.6l0.7,0c0.1-0.4,0.2-0.9,0.4-1.5S175.2,81.5,175.3,81.4z"
				/>
			<path fill="#442C15" d="M181.4,89.9l0.9-0.1c-0.4,1-1,1.9-1.8,2.7c-0.9,0.8-1.6,1.2-2.1,1.2c-0.4,0-0.8-0.2-1-0.6
				s-0.4-0.9-0.4-1.4c0-0.9,0.2-1.9,0.6-2.9c0.4-1.1,1-2,1.7-2.8c0.7-0.8,1.4-1.4,2.2-1.9s1.5-0.7,2-0.7c0.2,0,0.4,0.1,0.6,0.2
				s0.2,0.3,0.2,0.5c0,0.3-0.1,0.7-0.4,1.1s-0.7,0.8-1.1,1.2c-0.6,0.5-1.2,0.9-1.8,1.1c-0.6,0.3-1.1,0.4-1.6,0.5
				c-0.2,0.4-0.3,0.7-0.3,1.1c-0.1,0.4-0.1,0.8-0.1,1.2c0,0.6,0.1,1,0.3,1.3c0.2,0.3,0.5,0.5,0.9,0.5c0.1,0,0.1,0,0.2,0s0.1,0,0.1,0
				c0.2-0.2,0.4-0.5,0.6-0.9C181.1,90.8,181.2,90.4,181.4,89.9z M179.7,86.9c0.1,0,0.2,0.1,0.4,0.1s0.3,0,0.5,0c0,0,0.1,0,0.2,0
				c0.1,0,0.2,0,0.3,0c0.3-0.2,0.6-0.5,0.8-0.8c0.2-0.3,0.3-0.6,0.3-0.9c0-0.2-0.1-0.3-0.2-0.5c-0.1-0.1-0.2-0.2-0.4-0.2
				c-0.1,0-0.1,0-0.3,0.1c0,0,0,0,0,0c-0.4,0.3-0.7,0.6-0.9,1S179.8,86.4,179.7,86.9z"/>
		</g>
	</g>
</g>
</svg>